<svg width="36" height="36" viewBox="0 0 36 36" fill="none" xmlns="http://www.w3.org/2000/svg">
<circle cx="17.6973" cy="18.2992" r="17" fill="white" stroke="#071D49"/>
<g clip-path="url(#clip0)">
<path d="M26.9812 13.8801C26.9367 12.8174 26.7735 12.0868 26.5396 11.4537C26.2983 10.7818 25.9272 10.1801 25.4409 9.68002C24.9658 9.1721 24.3905 8.77743 23.7595 8.52745C23.1546 8.28127 22.4642 8.10943 21.4546 8.06257C20.4375 8.01175 20.1147 8 17.5351 8C14.9554 8 14.6326 8.01175 13.6193 8.05861C12.6097 8.10546 11.9157 8.27746 11.3144 8.52348C10.6759 8.77743 10.1043 9.16814 9.62922 9.68002C9.1467 10.1801 8.77191 10.7857 8.53428 11.4499C8.30041 12.0868 8.13716 12.8134 8.09265 13.8761C8.04437 14.9467 8.0332 15.2866 8.0332 18.002C8.0332 20.7173 8.04437 21.0572 8.08888 22.1239C8.13339 23.1865 8.29679 23.9171 8.53065 24.5502C8.77191 25.2221 9.1467 25.8238 9.62922 26.3239C10.1043 26.8318 10.6796 27.2265 11.3106 27.4765C11.9157 27.7226 12.6059 27.8945 13.6156 27.9413C14.6288 27.9883 14.9518 27.9999 17.5314 27.9999C20.111 27.9999 20.4339 27.9883 21.4472 27.9413C22.4568 27.8945 23.1508 27.7226 23.7521 27.4765C25.029 26.9568 26.0385 25.8941 26.5322 24.5502C26.7659 23.9133 26.9293 23.1865 26.9738 22.1239C27.0183 21.0572 27.0295 20.7173 27.0295 18.002C27.0295 15.2866 27.0257 14.9467 26.9812 13.8801ZM25.2702 22.0457C25.2294 23.0225 25.0735 23.5499 24.9436 23.9015C24.6243 24.7728 23.9674 25.4643 23.1397 25.8004C22.8056 25.9372 22.3009 26.1012 21.3766 26.1441C20.3745 26.1911 20.0739 26.2027 17.5388 26.2027C15.0037 26.2027 14.6994 26.1911 13.7009 26.1441C12.773 26.1012 12.2719 25.9372 11.9378 25.8004C11.5259 25.6402 11.151 25.3862 10.8467 25.0541C10.5312 24.7298 10.2899 24.3391 10.1377 23.9055C10.0078 23.5539 9.85192 23.0225 9.81118 22.0497C9.76652 20.9948 9.7555 20.6783 9.7555 18.0097C9.7555 15.3412 9.76652 15.0209 9.81118 13.9699C9.85192 12.9932 10.0078 12.4657 10.1377 12.1141C10.2899 11.6804 10.5312 11.2859 10.8504 10.9654C11.1584 10.6333 11.5296 10.3793 11.9416 10.2192C12.2757 10.0825 12.7805 9.9184 13.7046 9.87537C14.7068 9.82851 15.0075 9.81676 17.5424 9.81676C20.0813 9.81676 20.3819 9.82851 21.3804 9.87537C22.3083 9.9184 22.8094 10.0825 23.1434 10.2192C23.5553 10.3793 23.9303 10.6333 24.2346 10.9654C24.5501 11.2897 24.7913 11.6804 24.9436 12.1141C25.0735 12.4657 25.2294 12.997 25.2702 13.9699C25.3147 15.0248 25.3259 15.3412 25.3259 18.0097C25.3259 20.6783 25.3147 20.9908 25.2702 22.0457Z" fill="#071D49"/>
<path d="M17.5351 12.8642C14.8406 12.8642 12.6543 15.1654 12.6543 18.0019C12.6543 20.8385 14.8406 23.1396 17.5351 23.1396C20.2299 23.1396 22.416 20.8385 22.416 18.0019C22.416 15.1654 20.2299 12.8642 17.5351 12.8642ZM17.5351 21.3346C15.787 21.3346 14.3691 19.8422 14.3691 18.0019C14.3691 16.1617 15.787 14.6692 17.5351 14.6692C19.2834 14.6692 20.7012 16.1617 20.7012 18.0019C20.7012 19.8422 19.2834 21.3346 17.5351 21.3346Z" fill="#071D49"/>
<path d="M23.7498 12.6611C23.7498 13.3235 23.2395 13.8605 22.6102 13.8605C21.9809 13.8605 21.4707 13.3235 21.4707 12.6611C21.4707 11.9986 21.9809 11.4617 22.6102 11.4617C23.2395 11.4617 23.7498 11.9986 23.7498 12.6611Z" fill="#071D49"/>
</g>
<defs>
<clipPath id="clip0">
<rect width="19" height="20" fill="white" transform="translate(8 8)"/>
</clipPath>
</defs>
</svg>
