<svg width="69" height="48" viewBox="0 0 69 48" fill="none" xmlns="http://www.w3.org/2000/svg">
<g clip-path="url(#clip0)">
<path d="M68.9482 0.973732H64.4619V35.163H68.9482V0.973732Z" fill="white"/>
<path d="M31.0022 0.5C26.4537 0.5 22.7774 4.16608 22.7774 8.656V11.0245C22.819 12.528 23.172 13.9492 23.8159 15.2467C24.5221 16.6266 25.9344 17.7594 28.0321 18.6039L31.6253 20.0662C32.2692 20.3339 32.7676 20.5811 33.1623 20.8076C33.5777 21.0548 33.91 21.3843 34.1384 21.7756C34.3669 22.167 34.5331 22.6819 34.5954 23.2997C34.6577 23.9176 34.6992 24.5561 34.72 25.1946V27.3983C34.72 29.4579 33.0376 31.1468 30.9399 31.1468C28.8629 31.1468 27.1598 29.4785 27.1598 27.3983V25.5447H22.6943V27.3983C22.6943 31.9089 26.3913 35.5543 30.9191 35.5543C35.4677 35.5543 39.1439 31.8883 39.1439 27.3983V25.0298C39.1232 23.9588 39.0609 22.9908 38.957 22.167C38.8324 21.2195 38.5832 20.3545 38.2301 19.6131C37.877 18.8922 37.3577 18.2331 36.6931 17.6976C36.0285 17.1415 35.1354 16.6678 34.0554 16.2559L30.213 14.7524C29.5483 14.4847 29.0083 14.2169 28.6137 13.9492C28.1983 13.6608 27.8868 13.3313 27.6791 12.9606C27.4714 12.5898 27.326 12.1367 27.2844 11.6424L27.2637 11.5394C27.2429 11.3129 27.2221 11.0657 27.2014 10.798V8.656C27.2014 6.59641 28.8837 4.90754 30.9814 4.90754C33.0584 4.90754 34.7615 6.57581 34.7615 8.656V10.5096H39.227V8.656C39.2478 4.16608 35.5508 0.5 31.0022 0.5Z" fill="white"/>
<path d="M4.89475 0.973732V4.49564H7.84405L0.927734 35.1836H5.39322L10.4818 10.4479L13.3065 23.5675H10.1287L9.31869 27.7073H14.1373L15.6119 35.1836H20.0774L12.3718 0.973732H4.89475Z" fill="white"/>
<path d="M45.5617 0.973732V4.49564H48.4903L41.5947 35.1836H46.0394L51.1488 10.4479L53.9735 23.5675H50.7957L49.9857 27.7073H54.8043L56.2789 35.1836H60.7444L53.0388 0.973732H45.5617Z" fill="white"/>
<path d="M22.2379 47.3971V45.2345H19.704V47.3971H19.0186V42.5158H19.704V44.596H22.2171V42.5158H22.9025V47.3971H22.2379Z" fill="white"/>
<path d="M27.6171 42.4128C28.8633 42.4128 30.0887 43.319 30.0887 44.9461C30.0887 46.5732 28.8425 47.5 27.6171 47.5C26.3709 47.5 25.1455 46.5732 25.1455 44.9461C25.1455 43.319 26.3917 42.4128 27.6171 42.4128ZM27.6171 46.8821C28.531 46.8821 29.4033 46.2231 29.4033 44.9461C29.4033 43.6692 28.5517 43.0307 27.6171 43.0307C26.6825 43.0307 25.8309 43.6692 25.8309 44.9461C25.8517 46.2231 26.7032 46.8821 27.6171 46.8821Z" fill="white"/>
<path d="M33.9307 43.1337V47.3971H33.2453V43.1337H31.6045V42.5158H35.5715V43.1337H33.9307Z" fill="white"/>
<path d="M37.5654 47.3971V42.5158H40.5563V43.1337H38.2508V44.6372H40.3486V45.2757H38.2508V46.7792H40.5563V47.3971H37.5654Z" fill="white"/>
<path d="M42.8408 47.3971V42.5158H43.5262V46.7586H45.8524V47.3971H42.8408Z" fill="white"/>
<path d="M50.4849 43.834C50.4226 43.4838 50.1318 43.0101 49.4464 43.0101C48.8856 43.0101 48.491 43.3602 48.491 43.8134C48.491 44.1635 48.6987 44.4312 49.1141 44.5136L49.8411 44.6784C50.6511 44.8638 51.1288 45.3581 51.1288 46.0583C51.1288 46.8204 50.4849 47.5 49.4257 47.5C48.2418 47.5 47.681 46.738 47.5771 46.0377L48.221 45.8318C48.2626 46.3673 48.6572 46.8822 49.4049 46.8822C50.0903 46.8822 50.4226 46.532 50.4226 46.0995C50.4226 45.7494 50.1734 45.4404 49.6957 45.3375L48.9895 45.1933C48.2833 45.0491 47.7848 44.596 47.7848 43.8546C47.7848 43.0925 48.491 42.3922 49.4049 42.3922C50.5265 42.3922 50.9626 43.0719 51.0665 43.6074L50.4849 43.834Z" fill="white"/>
</g>
<defs>
<clipPath id="clip0">
<rect width="68" height="47" fill="white" transform="translate(0.927734 0.5)"/>
</clipPath>
</defs>
</svg>
