<svg width="28" height="28" viewBox="0 0 28 28" fill="none" xmlns="http://www.w3.org/2000/svg">
<g clip-path="url(#clip0)">
<path d="M23.9737 20.954C22.5033 19.4837 20.7532 18.3952 18.8437 17.7363C20.8888 16.3277 22.2324 13.9703 22.2324 11.3047C22.2324 7.00119 18.7312 3.5 14.4277 3.5C10.1242 3.5 6.62305 7.00119 6.62305 11.3047C6.62305 13.9703 7.96667 16.3277 10.0119 17.7363C8.10235 18.3952 6.3522 19.4837 4.88181 20.954C2.332 23.5039 0.927734 26.894 0.927734 30.5H3.03711C3.03711 24.2192 8.14691 19.1094 14.4277 19.1094C20.7086 19.1094 25.8184 24.2192 25.8184 30.5H27.9277C27.9277 26.894 26.5235 23.5039 23.9737 20.954ZM14.4277 17C11.2873 17 8.73242 14.4451 8.73242 11.3047C8.73242 8.16425 11.2873 5.60938 14.4277 5.60938C17.5681 5.60938 20.123 8.16425 20.123 11.3047C20.123 14.4451 17.5681 17 14.4277 17Z" fill="white"/>
</g>
<defs>
<clipPath id="clip0">
<rect width="27" height="27" fill="white" transform="translate(0.927734 0.5)"/>
</clipPath>
</defs>
</svg>
