<svg width="25" height="16" viewBox="0 0 25 16" fill="none" xmlns="http://www.w3.org/2000/svg">
<path d="M12.9277 3.67946C12.4861 3.68586 12.0478 3.75092 11.626 3.87263C11.8211 4.19071 11.925 4.54985 11.9277 4.91575C11.9277 5.19987 11.8674 5.4812 11.7501 5.74369C11.6328 6.00618 11.461 6.24468 11.2443 6.44558C11.0276 6.64648 10.7704 6.80584 10.4873 6.91457C10.2042 7.02329 9.9008 7.07925 9.59438 7.07925C9.19976 7.07672 8.81243 6.98041 8.46938 6.79954C8.19872 7.66989 8.23027 8.59713 8.55954 9.44993C8.88882 10.3027 9.49913 11.0378 10.304 11.5512C11.1089 12.0645 12.0676 12.33 13.0443 12.31C14.0209 12.2901 14.9661 11.9857 15.7458 11.44C16.5256 10.8943 17.1004 10.135 17.3888 9.26956C17.6773 8.40415 17.6647 7.47652 17.353 6.61807C17.0413 5.75962 16.4461 5.01388 15.6519 4.48647C14.8577 3.95906 13.9046 3.67673 12.9277 3.67946ZM24.7827 7.44241C22.5231 3.35455 18.0498 0.588745 12.9277 0.588745C7.80563 0.588745 3.33104 3.35648 1.07271 7.4428C0.977396 7.61762 0.927734 7.81077 0.927734 8.00666C0.927734 8.20256 0.977396 8.3957 1.07271 8.57053C3.33229 12.6584 7.80563 15.4242 12.9277 15.4242C18.0498 15.4242 22.5244 12.6565 24.7827 8.57014C24.878 8.39532 24.9277 8.20217 24.9277 8.00628C24.9277 7.81038 24.878 7.61724 24.7827 7.44241ZM12.9277 13.5698C8.8173 13.5698 5.04896 11.4449 3.01396 8.00647C5.04896 4.56805 8.81688 2.44318 12.9277 2.44318C17.0385 2.44318 20.8065 4.56805 22.8415 8.00647C20.8069 11.4449 17.0385 13.5698 12.9277 13.5698Z" fill="#071D49"/>
</svg>
