<svg width="19" height="15" viewBox="0 0 19 15" fill="none" xmlns="http://www.w3.org/2000/svg">
<path d="M17.0774 3.90798C17.0888 4.05858 17.0888 4.20922 17.0888 4.35983C17.0888 8.95354 13.3769 14.2466 6.59269 14.2466C4.50259 14.2466 2.56098 13.6764 0.927734 12.6867C1.2247 12.7189 1.5102 12.7297 1.81859 12.7297C3.54318 12.7297 5.13076 12.181 6.39852 11.2451C4.7767 11.2128 3.41756 10.2123 2.94928 8.83523C3.17773 8.86748 3.40614 8.889 3.64601 8.889C3.97721 8.889 4.30845 8.84595 4.61681 8.77068C2.92647 8.44791 1.65867 7.04937 1.65867 5.36033V5.31732C2.14976 5.57552 2.72087 5.73689 3.32616 5.75838C2.3325 5.13439 1.68152 4.06935 1.68152 2.86442C1.68152 2.21895 1.86422 1.62725 2.18404 1.11085C4.00003 3.21945 6.72973 4.59647 9.7906 4.74711C9.73351 4.48891 9.69923 4.21999 9.69923 3.95103C9.69923 2.03605 11.3439 0.476135 13.3883 0.476135C14.4505 0.476135 15.4099 0.895703 16.0837 1.57347C16.9175 1.42286 17.7169 1.13238 18.4251 0.734333C18.1509 1.54121 17.5685 2.21898 16.8033 2.64927C17.5457 2.574 18.2652 2.38031 18.9276 2.11139C18.4252 2.79988 17.797 3.41307 17.0774 3.90798Z" fill="#071D49"/>
</svg>
