<svg fill="none" height="36" viewBox="0 0 36 36" width="36" xmlns="http://www.w3.org/2000/svg" xmlns:xlink="http://www.w3.org/1999/xlink"><clipPath id="a"><path d="m8 8h19v20h-19z"/></clipPath><circle cx="17.6973" cy="18.2992" fill="#fff" r="17" stroke="#071d49"/><g clip-path="url(#a)" fill="#071d49"><path d="m26.9812 13.8801c-.0445-1.0627-.2077-1.7933-.4416-2.4264-.2413-.6719-.6124-1.2736-1.0987-1.77368-.4751-.50792-1.0504-.90259-1.6814-1.15257-.6049-.24618-1.2953-.41802-2.3049-.46488-1.0171-.05082-1.3399-.06257-3.9195-.06257-2.5797 0-2.9025.01175-3.9158.05861-1.0096.04685-1.7036.21885-2.3049.46487-.6385.25395-1.2101.64466-1.68518 1.15654-.48252.50008-.85731 1.10568-1.09494 1.76988-.23387.6369-.39712 1.3635-.44163 2.4262-.04828 1.0706-.05945 1.4105-.05945 4.1259 0 2.7153.01117 3.0552.05568 4.1219.04451 1.0626.20791 1.7932.44177 2.4263.24126.6719.61605 1.2736 1.09857 1.7737.47508.5079 1.05038.9026 1.68138 1.1526.6051.2461 1.2953.418 2.305.4648 1.0132.047 1.3362.0586 3.9158.0586s2.9025-.0116 3.9158-.0586c1.0096-.0468 1.7036-.2187 2.3049-.4648 1.2769-.5197 2.2864-1.5824 2.7801-2.9263.2337-.6369.3971-1.3637.4416-2.4263.0445-1.0667.0557-1.4066.0557-4.1219 0-2.7154-.0038-3.0553-.0483-4.1219zm-1.711 8.1656c-.0408.9768-.1967 1.5042-.3266 1.8558-.3193.8713-.9762 1.5628-1.8039 1.8989-.3341.1368-.8388.3008-1.7631.3437-1.0021.047-1.3027.0586-3.8378.0586s-2.8394-.0116-3.8379-.0586c-.9279-.0429-1.429-.2069-1.7631-.3437-.4119-.1602-.7868-.4142-1.0911-.7463-.3155-.3243-.5568-.715-.709-1.1486-.1299-.3516-.28578-.883-.32652-1.8558-.04466-1.0549-.05568-1.3714-.05568-4.04 0-2.6685.01102-2.9888.05568-4.0398.04074-.9767.19662-1.5042.32652-1.8558.1522-.4337.3935-.8282.7127-1.1487.308-.3321.6792-.5861 1.0912-.7462.3341-.1367.8389-.3008 1.763-.34383 1.0022-.04686 1.3029-.05861 3.8378-.05861 2.5389 0 2.8395.01175 3.838.05861.9279.04303 1.429.20713 1.763.34383.4119.1601.7869.4141 1.0912.7462.3155.3243.5567.715.709 1.1487.1299.3516.2858.8829.3266 1.8558.0445 1.0549.0557 1.3713.0557 4.0398 0 2.6686-.0112 2.9811-.0557 4.036z"/><path d="m17.5351 12.8642c-2.6945 0-4.8808 2.3012-4.8808 5.1377 0 2.8366 2.1863 5.1377 4.8808 5.1377 2.6948 0 4.8809-2.3011 4.8809-5.1377 0-2.8365-2.1861-5.1377-4.8809-5.1377zm0 8.4704c-1.7481 0-3.166-1.4924-3.166-3.3327 0-1.8402 1.4179-3.3327 3.166-3.3327 1.7483 0 3.1661 1.4925 3.1661 3.3327 0 1.8403-1.4178 3.3327-3.1661 3.3327z"/><path d="m23.7498 12.6611c0 .6624-.5103 1.1994-1.1396 1.1994s-1.1395-.537-1.1395-1.1994c0-.6625.5102-1.1994 1.1395-1.1994s1.1396.5369 1.1396 1.1994z"/></g></svg>